<?xml version="1.0" encoding="UTF-8"?>
<!DOCTYPE svg PUBLIC "-//W3C//DTD SVG 1.1//EN" "http://www.w3.org/Graphics/SVG/1.1/DTD/svg11.dtd">
<!-- Creator: CorelDRAW X7 -->
<svg xmlns="http://www.w3.org/2000/svg" xml:space="preserve" width="154px" height="143px" version="1.1" style="shape-rendering:geometricPrecision; text-rendering:geometricPrecision; image-rendering:optimizeQuality; fill-rule:evenodd; clip-rule:evenodd"
viewBox="0 0 46 43"
 xmlns:xlink="http://www.w3.org/1999/xlink">
 <defs>
  <style type="text/css">
   <![CDATA[
    .fil0 {fill:#333333}
   ]]>
  </style>
 </defs>
 <g id="Layer_x0020_1">
  <metadata id="CorelCorpID_0Corel-Layer"/>
  <path class="fil0" d="M22 0c6,21 2,17 23,21 -21,5 -17,1 -23,22 -5,-21 -1,-17 -22,-22 21,-4 17,0 22,-21zm-12 6c2,5 1,4 6,5 -5,1 -4,0 -6,6 -1,-6 0,-5 -5,-6 5,-1 4,0 5,-5zm27 -6c2,9 0,7 9,9 -9,2 -7,0 -9,9 -2,-9 -1,-7 -9,-9 8,-2 7,0 9,-9z"/>
 </g>
</svg>
