<?xml version="1.0" encoding="UTF-8"?>
<!DOCTYPE svg PUBLIC "-//W3C//DTD SVG 1.1//EN" "http://www.w3.org/Graphics/SVG/1.1/DTD/svg11.dtd">
<!-- Creator: CorelDRAW X7 -->
<svg xmlns="http://www.w3.org/2000/svg" xml:space="preserve" width="217px" height="153px" version="1.1" style="shape-rendering:geometricPrecision; text-rendering:geometricPrecision; image-rendering:optimizeQuality; fill-rule:evenodd; clip-rule:evenodd"
viewBox="0 0 174 123"
 xmlns:xlink="http://www.w3.org/1999/xlink">
 <defs>
  <style type="text/css">
   <![CDATA[
    .fil0 {fill:#231F20}
   ]]>
  </style>
 </defs>
 <g id="Layer_x0020_1">
  <metadata id="CorelCorpID_0Corel-Layer"/>
  <path class="fil0" d="M26 114l9 9c1,-1 7,-7 8,-8l9 -9c4,2 7,4 15,6 37,10 69,-9 93,-33 3,-3 11,-11 13,-14 3,-5 -2,-9 -5,-13 -4,-5 -13,-13 -18,-17 -4,-4 -10,-8 -15,-11 0,-2 5,-6 7,-8 1,-1 5,-5 7,-7 -1,-1 -9,-9 -10,-9l-113 114zm48 -29c17,9 36,-2 39,-19 1,-5 0,-14 -3,-18 -1,1 -8,8 -9,9 -2,2 0,3 -1,8 -2,6 -7,10 -14,10 -2,0 -2,-1 -3,0 -2,1 -9,8 -9,10z"/>
  <path class="fil0" d="M29 92l30 -30c3,-3 1,-2 2,-8 2,-7 7,-13 14,-16 7,-4 10,-2 11,-4 1,-1 2,-2 3,-3 1,-1 19,-19 20,-20 -40,-12 -75,13 -98,36 -2,2 -5,4 -7,7 -5,6 -7,8 2,17 2,1 2,3 4,4 1,1 2,2 3,3 1,1 1,2 2,2 2,3 12,11 14,12z"/>
 </g>
</svg>
