<?xml version="1.0" encoding="UTF-8"?>
<!DOCTYPE svg PUBLIC "-//W3C//DTD SVG 1.1//EN" "http://www.w3.org/Graphics/SVG/1.1/DTD/svg11.dtd">
<!-- Creator: CorelDRAW X7 -->
<svg xmlns="http://www.w3.org/2000/svg" xml:space="preserve" width="217px" height="133px" version="1.1" style="shape-rendering:geometricPrecision; text-rendering:geometricPrecision; image-rendering:optimizeQuality; fill-rule:evenodd; clip-rule:evenodd"
viewBox="0 0 148 91"
 xmlns:xlink="http://www.w3.org/1999/xlink">
 <defs>
  <style type="text/css">
   <![CDATA[
    .fil0 {fill:#231F20}
   ]]>
  </style>
 </defs>
 <g id="Layer_x0020_1">
  <metadata id="CorelCorpID_0Corel-Layer"/>
  <path class="fil0" d="M71 0c-17,1 -33,9 -43,17 -7,5 -10,8 -16,14 -3,2 -9,9 -11,11 -1,2 -1,4 0,6 1,3 12,14 14,16 5,4 11,9 17,13 11,8 28,15 46,14 19,-1 38,-12 51,-23l4 -4c3,-3 4,-5 7,-7 2,-2 6,-7 7,-8 3,-5 -1,-8 -3,-10 -18,-21 -45,-40 -73,-39zm1 23c-12,1 -22,12 -21,25 2,12 12,22 26,20 11,-1 21,-12 20,-25 -2,-12 -12,-22 -25,-20zm1 11c-6,1 -11,6 -10,13 1,6 6,11 13,10 5,-1 10,-6 9,-13 0,-6 -5,-11 -12,-10zm-60 12l15 14c1,1 3,2 4,3 33,25 60,21 91,-6 4,-3 8,-7 12,-11 -1,-2 -10,-10 -12,-12 -13,-11 -30,-23 -49,-23 -19,0 -36,12 -49,23l-3 3c-2,1 -8,7 -9,9z"/>
 </g>
</svg>
