<?xml version="1.0" encoding="UTF-8"?>
<!DOCTYPE svg PUBLIC "-//W3C//DTD SVG 1.1//EN" "http://www.w3.org/Graphics/SVG/1.1/DTD/svg11.dtd">
<!-- Creator: CorelDRAW X7 -->
<svg xmlns="http://www.w3.org/2000/svg" xml:space="preserve" width="217px" height="153px" version="1.1" style="shape-rendering:geometricPrecision; text-rendering:geometricPrecision; image-rendering:optimizeQuality; fill-rule:evenodd; clip-rule:evenodd"
viewBox="0 0 174 123"
 xmlns:xlink="http://www.w3.org/1999/xlink">
 <defs>
  <style type="text/css">
   <![CDATA[
    .fil0 {fill:#231F20}
   ]]>
  </style>
 </defs>
 <g id="Layer_x0020_1">
  <metadata id="CorelCorpID_0Corel-Layer"/>
  <path class="fil0" d="M25 114l10 9c2,-1 14,-15 17,-17 2,1 5,3 7,4 26,9 47,6 71,-8 12,-7 26,-18 35,-28 2,-2 7,-7 8,-9 2,-5 -1,-8 -2,-10 -1,-1 -1,-1 -2,-2 -4,-4 -8,-8 -12,-12 -5,-5 -17,-14 -22,-17 1,-2 5,-6 6,-7 2,-2 7,-6 7,-8l-9 -9 -114 114zm85 -66c4,8 5,17 0,26 -3,7 -10,12 -19,14 -9,1 -12,-1 -18,-3l-11 11c6,3 17,6 25,6 16,0 32,-8 41,-15 6,-4 11,-7 16,-12 3,-2 5,-4 7,-6l7 -7c0,-2 -9,-10 -11,-12 -4,-4 -18,-16 -22,-17 -2,2 -14,14 -15,15zm-26 26c4,3 10,-1 12,-3 2,-1 3,-3 4,-5 0,-2 1,-6 0,-8l-16 16z"/>
  <path class="fil0" d="M28 92c2,-2 4,-3 5,-5 1,-1 4,-4 5,-5 -1,-1 -2,-2 -3,-2 -5,-4 -10,-8 -14,-13l-5 -5c1,-3 14,-15 18,-18 6,-5 14,-10 22,-15 11,-5 23,-9 37,-7 5,0 4,1 7,-1 1,-2 8,-8 9,-10 -18,-4 -31,-4 -48,2 -15,5 -33,17 -43,27 -1,1 -2,2 -4,3 -1,1 -2,3 -3,4 -4,3 -4,4 -7,7 -2,2 -5,5 -4,10 1,3 11,13 13,15l8 6c1,2 2,2 3,4 1,0 4,2 4,3z"/>
  <path class="fil0" d="M60 60c2,-1 25,-24 25,-25 -13,0 -24,12 -25,25z"/>
 </g>
</svg>
