<?xml version="1.0" encoding="UTF-8"?>
<!DOCTYPE svg PUBLIC "-//W3C//DTD SVG 1.1//EN" "http://www.w3.org/Graphics/SVG/1.1/DTD/svg11.dtd">
<!-- Creator: CorelDRAW X7 -->
<svg xmlns="http://www.w3.org/2000/svg" xml:space="preserve" width="217px" height="133px" version="1.1" style="shape-rendering:geometricPrecision; text-rendering:geometricPrecision; image-rendering:optimizeQuality; fill-rule:evenodd; clip-rule:evenodd"
viewBox="0 0 148 91"
 xmlns:xlink="http://www.w3.org/1999/xlink">
 <defs>
  <style type="text/css">
   <![CDATA[
    .fil0 {fill:#231F20}
   ]]>
  </style>
 </defs>
 <g id="Layer_x0020_1">
  <metadata id="CorelCorpID_0Corel-Layer"/>
  <path class="fil0" d="M70 0c-25,2 -47,19 -63,35 0,1 -1,1 -1,2 -5,6 -10,8 -1,16 0,1 1,1 1,2 1,1 2,1 2,2 7,7 17,15 25,20 31,20 59,18 88,-4 2,-1 3,-2 4,-3 4,-3 13,-10 16,-14 1,-1 2,-3 3,-4 5,-6 6,-7 0,-14l-16 -15c-3,-3 -9,-7 -13,-9 -11,-8 -28,-15 -45,-14zm1 23c-11,1 -21,12 -19,25 1,12 12,22 25,20 11,-1 21,-12 20,-25 -2,-12 -12,-22 -26,-20z"/>
  <path class="fil0" d="M72 34c-5,1 -10,7 -9,13 1,6 6,11 13,10 6,-1 10,-7 9,-13 -1,-6 -6,-11 -13,-10z"/>
 </g>
</svg>
