<?xml version="1.0" encoding="UTF-8"?>
<!DOCTYPE svg PUBLIC "-//W3C//DTD SVG 1.1//EN" "http://www.w3.org/Graphics/SVG/1.1/DTD/svg11.dtd">
<!-- Creator: CorelDRAW X7 -->
<svg xmlns="http://www.w3.org/2000/svg" xml:space="preserve" width="391px" height="436px" version="1.1" style="shape-rendering:geometricPrecision; text-rendering:geometricPrecision; image-rendering:optimizeQuality; fill-rule:evenodd; clip-rule:evenodd"
viewBox="0 0 391 436"
 xmlns:xlink="http://www.w3.org/1999/xlink">
 <defs>
  <style type="text/css">
   <![CDATA[
    .fil1 {fill:#D7E68A}
    .fil0 {fill:#F2BD68}
   ]]>
  </style>
 </defs>
 <g id="Layer_x0020_1">
  <metadata id="CorelCorpID_0Corel-Layer"/>
  <g id="_2743408899504">
   <path class="fil0" d="M70 135c26,-18 48,-25 73,-29 70,-25 177,-1 199,34 15,11 36,38 38,57 60,-135 -213,-207 -310,-62z"/>
   <path class="fil0" d="M367 212c-30,-108 -208,-118 -293,-60 -217,148 91,421 315,203 8,-21 -11,-38 -29,-32 -140,168 -409,-3 -281,-122 75,-69 270,-43 245,49 -20,75 -218,97 -217,-35 -19,11 -31,31 -31,44 39,147 318,108 291,-47z"/>
   <path class="fil1" d="M124 66c59,-40 162,-39 211,-7 20,3 34,-21 17,-37 -50,-38 -187,-28 -228,44z"/>
  </g>
 </g>
</svg>
