<?xml version="1.0" encoding="utf-8"?>
<svg viewBox="204.029 78.85 46.7 83.4" xmlns="http://www.w3.org/2000/svg">
  <path fill-rule="evenodd" clip-rule="evenodd" d="M 249.429 123.45 L 218.529 159.95 C 218.529 159.95 217.029 162.25 214.729 162.25 C 207.429 162.25 212.429 153.25 211.029 156.55 L 223.829 124.35 L 208.129 124.35 C 205.829 124.35 204.029 122.55 204.029 120.25 C 204.029 118.65 204.629 117.95 204.629 117.95 L 236.829 81.05 C 237.729 79.85 238.829 78.85 240.429 78.85 C 242.729 78.85 244.529 80.65 244.529 82.95 C 244.529 83.85 241.929 90.35 241.929 90.55 L 232.329 116.45 L 246.629 116.45 C 248.929 116.45 250.729 118.25 250.729 120.55 C 250.529 121.55 250.029 122.75 249.429 123.45 Z"/>
</svg>