<?xml version="1.0" encoding="UTF-8"?>
<!DOCTYPE svg PUBLIC "-//W3C//DTD SVG 1.1//EN" "http://www.w3.org/Graphics/SVG/1.1/DTD/svg11.dtd">
<!-- Creator: CorelDRAW X7 -->
<svg xmlns="http://www.w3.org/2000/svg" xml:space="preserve" width="978px" height="263px" version="1.1" style="shape-rendering:geometricPrecision; text-rendering:geometricPrecision; image-rendering:optimizeQuality; fill-rule:evenodd; clip-rule:evenodd"
viewBox="0 0 978 263"
 xmlns:xlink="http://www.w3.org/1999/xlink">
 <defs>
  <style type="text/css">
   <![CDATA[
    .fil0 {fill:#342F42}
    .fil1 {fill:#F2BD68}
    .fil2 {fill:#342F42;fill-rule:nonzero}
   ]]>
  </style>
 </defs>
 <g id="Layer_x0020_1">
  <metadata id="CorelCorpID_0Corel-Layer"/>
  <path class="fil0" d="M42 81c15,-11 29,-15 44,-18 42,-14 106,0 119,21 10,7 22,23 23,35 36,-82 -128,-125 -186,-38z"/>
  <path class="fil0" d="M220 127c-18,-64 -124,-70 -175,-36 -131,89 54,253 189,122 4,-12 -7,-23 -18,-19 -84,101 -245,-2 -168,-73 44,-42 162,-26 147,29 -13,45 -131,59 -131,-21 -11,7 -18,19 -18,26 23,89 191,65 174,-28z"/>
  <path class="fil1" d="M75 40c35,-25 96,-24 126,-5 12,2 20,-12 10,-22 -29,-23 -112,-17 -136,27z"/>
  <path class="fil2" d="M394 209c-11,0 -22,-2 -33,-6 -11,-3 -20,-8 -28,-14l17 -24c13,10 27,14 44,14 8,0 15,-1 20,-4 5,-3 7,-6 7,-11 0,-5 -2,-8 -7,-11 -4,-2 -11,-4 -21,-5 -19,-3 -34,-7 -42,-14 -9,-7 -14,-17 -14,-29 0,-9 3,-16 7,-23 5,-7 12,-12 21,-15 8,-4 19,-6 30,-6 10,0 19,2 29,4 9,3 17,7 24,12l-15 23c-11,-7 -23,-11 -37,-11 -8,0 -14,1 -19,4 -5,3 -8,6 -8,11 0,4 2,8 7,10 4,3 11,4 21,6 19,2 33,6 43,14 9,7 14,17 14,30 0,9 -3,17 -8,23 -5,7 -12,12 -21,16 -9,4 -19,6 -31,6z"/>
  <path id="1" class="fil2" d="M533 104c9,0 18,2 25,6 7,5 13,11 17,19 4,8 6,17 6,27 0,10 -2,19 -6,27 -4,7 -10,14 -17,18 -7,4 -16,6 -25,6 -12,0 -23,-3 -31,-11l0 53 -31 0 0 -143 27 0 2 12c8,-10 19,-14 33,-14zm-7 77c7,0 12,-2 17,-7 4,-5 6,-11 6,-18 0,-8 -2,-14 -6,-19 -5,-4 -10,-7 -17,-7 -7,0 -13,3 -17,8 -5,4 -7,10 -7,18 0,7 2,13 7,18 4,5 10,7 17,7z"/>
  <path id="2" class="fil2" d="M655 104c5,0 9,1 14,2 5,2 9,4 12,8l-13 23c-3,-2 -6,-3 -8,-4 -3,-1 -5,-1 -8,-1 -7,0 -12,2 -16,6 -4,4 -6,11 -6,19l0 48 -31 0 0 -99 27 0 3 12c6,-9 15,-14 26,-14z"/>
  <path id="3" class="fil2" d="M708 96c-6,0 -10,-2 -14,-5 -3,-3 -5,-7 -5,-12 0,-5 2,-9 5,-13 4,-3 8,-4 14,-4 5,0 9,1 13,4 3,4 5,8 5,13 0,5 -2,9 -5,12 -4,3 -8,5 -13,5zm-16 10l31 0 0 99 -31 0 0 -99z"/>
  <path id="4" class="fil2" d="M808 104c13,0 23,4 30,12 7,8 11,19 11,33l0 56 -32 0 0 -54c0,-6 -1,-11 -4,-15 -4,-4 -8,-6 -14,-6 -6,0 -11,3 -15,7 -3,4 -5,9 -5,16l0 52 -32 0 0 -99 27 0 2 12c4,-5 9,-8 14,-11 6,-2 12,-3 18,-3z"/>
  <path id="5" class="fil2" d="M954 189c7,3 12,7 16,13 4,5 6,12 6,19 0,8 -3,15 -7,22 -5,6 -11,11 -20,15 -8,3 -18,5 -29,5 -10,0 -20,-2 -28,-6 -8,-3 -14,-8 -19,-14 -4,-7 -6,-14 -6,-23 0,-2 0,-4 0,-5l31 0c-1,7 1,12 5,16 4,3 10,5 17,5 7,0 12,-1 17,-4 4,-3 6,-7 6,-12 0,-6 -2,-9 -6,-12 -4,-3 -9,-4 -16,-4 -11,0 -21,-2 -29,-7 -8,-4 -15,-10 -19,-17 -5,-8 -7,-17 -7,-27 0,-9 2,-18 7,-26 4,-7 11,-13 19,-17 8,-5 18,-7 29,-7 8,0 15,2 22,5l12 -14 23 16 -13 16c6,8 10,17 10,27 0,8 -2,14 -6,21 -3,6 -8,11 -15,15zm-33 -12c7,0 12,-2 16,-7 5,-4 7,-10 7,-17 0,-7 -2,-13 -6,-17 -5,-4 -10,-6 -17,-6 -7,0 -13,2 -17,6 -5,4 -7,10 -7,17 0,7 2,13 7,17 4,5 10,7 17,7z"/>
 </g>
</svg>
